<svg xmlns="http://www.w3.org/2000/svg" viewBox="0 0 800 820" width="800" font-family="-apple-system, BlinkMacSystemFont, 'Segoe UI', Helvetica, Arial, sans-serif">
  <defs>
    <marker id="arrow" viewBox="0 0 10 10" refX="9" refY="5" markerWidth="7" markerHeight="7" orient="auto">
      <path d="M0,0 L10,5 L0,10 Z" fill="#6B7280"/>
    </marker>
  </defs>

  <!-- Title -->
  <text x="400" y="30" text-anchor="middle" font-size="20" font-weight="700" fill="#9CA3AF">Pramana — architecture overview</text>
  <text x="400" y="55" text-anchor="middle" font-size="13" fill="#6B7280">FHIR-native digital quality measure engine with AI care-gap closure, exposed via MCP</text>

  <!-- Layer 1: Data ingest -->
  <rect x="50" y="80" width="700" height="90" rx="10" fill="#1E40AF"/>
  <text x="380" y="115" text-anchor="middle" font-size="18" font-weight="700" fill="#FFFFFF">Data ingest</text>
  <text x="380" y="140" text-anchor="middle" font-size="13" fill="#DBEAFE">FHIR R4 / US Core bulk import   ·   Claims (CARIN BB / X12 → FHIR)   ·   HL7 v2 ADT feeds</text>
  <!-- Phase 1/2 badge -->
  <rect x="648" y="91" width="90" height="22" rx="11" fill="rgba(255,255,255,0.18)"/>
  <text x="693" y="106" text-anchor="middle" font-size="11" fill="#DBEAFE">Phase 1–2 ✓</text>

  <line x1="400" y1="180" x2="400" y2="210" stroke="#6B7280" stroke-width="2" marker-end="url(#arrow)"/>

  <!-- Layer 2: Normalization -->
  <rect x="50" y="220" width="700" height="90" rx="10" fill="#047857"/>
  <text x="380" y="255" text-anchor="middle" font-size="18" font-weight="700" fill="#FFFFFF">Normalization &amp; provenance</text>
  <text x="380" y="280" text-anchor="middle" font-size="13" fill="#D1FAE5">US Core conformance   ·   Terminology normalization (LOINC, SNOMED, RxNorm, ICD-10)   ·   Provenance</text>
  <!-- Phase 2 badge -->
  <rect x="655" y="231" width="83" height="22" rx="11" fill="rgba(255,255,255,0.18)"/>
  <text x="696" y="246" text-anchor="middle" font-size="11" fill="#D1FAE5">Phase 2 ✓</text>

  <line x1="400" y1="320" x2="400" y2="350" stroke="#6B7280" stroke-width="2" marker-end="url(#arrow)"/>

  <!-- Layer 3: dQM execution engine — HIGHLIGHTED as shipped -->
  <!-- Glow border -->
  <rect x="46" y="356" width="708" height="98" rx="13" fill="none" stroke="#10B981" stroke-width="3.5" opacity="0.9"/>
  <rect x="50" y="360" width="700" height="90" rx="10" fill="#B45309"/>
  <text x="370" y="393" text-anchor="middle" font-size="18" font-weight="700" fill="#FFFFFF">Quality measure execution engine</text>
  <text x="370" y="418" text-anchor="middle" font-size="13" fill="#FEF3C7">CQL rules engine   ·   HEDIS + CMS eCQMs   ·   FHIR MeasureReport output</text>
  <!-- "Just shipped" green badge -->
  <rect x="626" y="371" width="112" height="24" rx="12" fill="#10B981"/>
  <text x="682" y="387" text-anchor="middle" font-size="12" font-weight="700" fill="#FFFFFF">✓  Just shipped</text>
  <!-- You are here arrow -->
  <text x="27" y="410" text-anchor="middle" font-size="20" fill="#10B981">▶</text>

  <line x1="400" y1="460" x2="400" y2="490" stroke="#6B7280" stroke-width="2" marker-end="url(#arrow)"/>

  <!-- Layer 4: AI care-gap layer -->
  <rect x="50" y="500" width="700" height="90" rx="10" fill="#9D174D" opacity="0.75"/>
  <text x="380" y="535" text-anchor="middle" font-size="18" font-weight="700" fill="#FFFFFF">AI care-gap layer</text>
  <text x="380" y="560" text-anchor="middle" font-size="13" fill="#FCE7F3">Unstructured note → FHIR extraction   ·   Explainable reasoning   ·   Outreach drafts</text>
  <!-- Phase 4 label -->
  <rect x="655" y="511" width="83" height="22" rx="11" fill="rgba(255,255,255,0.15)"/>
  <text x="696" y="526" text-anchor="middle" font-size="11" fill="#FCE7F3" opacity="0.85">Phase 4 →</text>

  <line x1="400" y1="600" x2="400" y2="630" stroke="#6B7280" stroke-width="2" marker-end="url(#arrow)"/>

  <!-- Layer 5: MCP server + dashboard -->
  <rect x="50" y="640" width="700" height="90" rx="10" fill="#5B21B6" opacity="0.65"/>
  <text x="380" y="675" text-anchor="middle" font-size="18" font-weight="700" fill="#FFFFFF">MCP server + dashboard</text>
  <text x="380" y="700" text-anchor="middle" font-size="13" fill="#EDE9FE">Natural-language interface   ·   Cohort and member views   ·   Stars projection</text>
  <!-- Phase 5 label -->
  <rect x="655" y="651" width="83" height="22" rx="11" fill="rgba(255,255,255,0.12)"/>
  <text x="696" y="666" text-anchor="middle" font-size="11" fill="#EDE9FE" opacity="0.75">Phase 5 →</text>

  <!-- Legend -->
  <rect x="50" y="750" width="16" height="16" rx="3" fill="#10B981"/>
  <text x="72" y="763" font-size="12" fill="#9CA3AF">Shipped</text>
  <rect x="145" y="750" width="16" height="16" rx="3" fill="#6B7280" opacity="0.5"/>
  <text x="167" y="763" font-size="12" fill="#9CA3AF">Planned</text>
</svg>
